:version 1.10
:name ASF
:units
  mass 1
  length 1
  angle deg
:documentation
  ASF file generated by Kaydara
:root
  axis xyz
  order  tx ty tz rx ry rz
  position 0 0 0
  orientation 0 0 0
:bonedata
  begin
    id 1
    name RightUpLegDummy
    direction -0.718183 -0.695806 0.00816078
    length 4.904
    axis 0 0 0 xyz
  end
  begin
    id 2
    name RightUpLeg
    direction 3.53989e-006 -0.995788 0.0916897
    length 17.4976
    axis -3.49089 -0.000906621 0.000287158 xyz
    dof rx ry rz
  end
  begin
    id 3
    name RightLeg
    direction 0.00371093 -0.995096 -0.0988418
    length 16.5821
    axis 3.68512 0.0193738 -0.131023 xyz
    dof rx ry rz
  end
  begin
    id 4
    name RightFoot
    direction 0.000791514 -0.46099 0.887405
    length 3.77069
    axis 4.84075e-005 -0.120479 -0.188788 xyz
    dof rx ry rz
  end
  begin
    id 5
    name RightToes
    direction 0.00124746 -0.014064 0.9999
    length 3.85082
    axis 0.00048216 0.542163 -0.142577 xyz
    dof rx ry rz
  end
  begin
    id 6
    name SpineDummy
    direction 8.36599e-015 1 5.97571e-016
    length 4.6813
    axis 0 0 0 xyz
  end
  begin
    id 7
    name Spine
    direction -4.63632e-008 0.999988 0.00495137
    length 10.1015
    axis -0.00138897 0.000121419 3.25764e-006 xyz
    dof rx ry rz
  end
  begin
    id 8
    name Spine1
    direction 0 0 0
    length 0
    axis -0.00138896 0.000121452 2.39764e-006 xyz
    dof rx ry rz
  end
  begin
    id 9
    name HEadDummy
    direction -3.91456e-008 0.999999 0.00127422
    length 3.43865
    axis -0.00138896 0.000121452 2.39764e-006 xyz
  end
  begin
    id 10
    name HEad
    direction -0.0222688 0.980941 0.193023
    length 5.12695
    axis -0.00138895 0.000121452 2.39764e-006 xyz
    dof rx ry rz
  end
  begin
    id 11
    name LeftShoulder1Dummy
    direction 0.998891 -0.0402508 -0.0244456
    length 3.5433
    axis -0.00138896 0.000121452 2.39764e-006 xyz
  end
  begin
    id 12
    name LeftShoulder1
    direction 0.99951 -0.000327743 0.0313091
    length 4.05031
    axis -0.00138896 0.000121452 2.39764e-006 xyz
    dof rx ry rz
  end
  begin
    id 13
    name LeftArm
    direction 0.998561 -0.00100054 -0.0536182
    length 10.3537
    axis -23.1894 0.134784 0.96751 xyz
    dof rx ry rz
  end
  begin
    id 14
    name LeftForeArm
    direction 0.998903 0.00866434 0.046012
    length 8.70632
    axis -9.91835 -0.06569 -0.177792 xyz
    dof rx ry rz
  end
  begin
    id 15
    name LeftHand
    direction 0.992938 -0.0411636 0.11126
    length 5.32135
    axis -0.00960227 -0.00340091 0.185174 xyz
    dof rx ry rz
  end
  begin
    id 16
    name RightShoulderDummy
    direction -0.998891 -0.0402509 -0.0244414
    length 3.5433
    axis -0.00138896 0.000121452 2.39764e-006 xyz
  end
  begin
    id 17
    name RightShoulder
    direction -0.99951 -0.000327827 0.0313133
    length 4.05031
    axis 0.215806 0.000203644 -0.00680151 xyz
    dof rx ry rz
  end
  begin
    id 18
    name RightArm
    direction -0.998573 -0.000999583 -0.053403
    length 10.3947
    axis -23.2009 -0.134239 -0.9641 xyz
    dof rx ry rz
  end
  begin
    id 19
    name RightForeArm
    direction -0.998898 0.00868026 0.0461306
    length 8.68355
    axis -9.92322 0.0658061 0.178869 xyz
    dof rx ry rz
  end
  begin
    id 20
    name RightHand
    direction -0.992843 -0.0414603 0.112003
    length 5.28593
    axis -0.00960634 0.00330671 -0.185226 xyz
    dof rx ry rz
  end
  begin
    id 21
    name LeftUpLegDummy
    direction 0.718183 -0.695806 0.00816078
    length 4.904
    axis 0 0 0 xyz
  end
  begin
    id 22
    name LeftUpLeg
    direction -6.8115e-006 -0.995793 0.0916336
    length 17.4976
    axis -3.48766 0.00143441 -0.000523914 xyz
    dof rx ry rz
  end
  begin
    id 23
    name LeftLeg
    direction -0.00601357 -0.995091 -0.0987824
    length 16.5821
    axis 3.68177 -0.00654038 -0.00028478 xyz
    dof rx ry rz
  end
  begin
    id 24
    name LeftFoot
    direction -0.00417578 -0.460984 0.887399
    length 3.77069
    axis 1.87232e-006 4.66002e-005 -8.1837e-006 xyz
    dof rx ry rz
  end
  begin
    id 25
    name LeftToes
    direction 0.00818058 -0.00485161 0.999955
    length 3.85048
    axis 1.06246e-005 4.65855e-005 -8.18502e-006 xyz
    dof rx ry rz
  end
:hierarchy
  begin
    root RightUpLegDummy SpineDummy LeftUpLegDummy
    RightUpLegDummy RightUpLeg
    RightUpLeg RightLeg
    RightLeg RightFoot
    RightFoot RightToes
    SpineDummy Spine
    Spine Spine1
    Spine1 HEadDummy LeftShoulder1Dummy RightShoulderDummy
    HEadDummy HEad
    LeftShoulder1Dummy LeftShoulder1
    LeftShoulder1 LeftArm
    LeftArm LeftForeArm
    LeftForeArm LeftHand
    RightShoulderDummy RightShoulder
    RightShoulder RightArm
    RightArm RightForeArm
    RightForeArm RightHand
    LeftUpLegDummy LeftUpLeg
    LeftUpLeg LeftLeg
    LeftLeg LeftFoot
    LeftFoot LeftToes
  end

:SAMPLES-PER-SECOND 30
:FULLY-SPECIFIED
:DEGREES
1
root  10.7614 40.1083 3.53862 4.71615 -86.3843 -7.75232
RightUpLeg  -6.29593 -5.60902 -5.74645
RightLeg  -1.27203 -12.5601 -0.52419
RightFoot  13.5058 -1.61377 7.7413
RightToes  1.16414e-010 0 -3.6325e-017
Spine  0.37475 -0.920622 -1.37668
Spine1  16.5299 -0.743571 -1.73491
HEad  48.9835 -7.73021 -1.17975
LeftShoulder1  1.18816 -3.86868 -8.69271
LeftArm  48.0667 29.0572 -41.3171
LeftForeArm  109.044 -80.8442 -61.5764
LeftHand  -1.04492 2.60827 42.3639
RightShoulder  1.51851 3.27557 15.6918
RightArm  51.8776 -27.6373 28.0383
RightForeArm  114.114 81.3337 75.7486
RightHand  -4.73221 8.6631 -37.9958
LeftUpLeg  3.00354 7.60395 0.716091
LeftLeg  9.8215 14.6835 3.21974
LeftFoot  -9.07972 0.20283 -7.51451
LeftToes  7.09373e-011 9.9627e-011 8.96859e-012
2
root  10.6003 40.1138 3.4003 5.89444 -85.4665 -9.13916
RightUpLeg  -5.97144 -5.53604 -5.45771
RightLeg  -0.547532 -13.4684 -0.681357
RightFoot  12.7746 -1.56021 7.70695
RightToes  1.16414e-010 0 -3.6325e-017
Spine  0.109917 -1.26166 -1.69409
Spine1  17.3979 -1.47682 -0.667188
HEad  49.3681 -8.0991 -1.07845
LeftShoulder1  1.18816 -3.89344 -8.5423
LeftArm  47.7517 29.5042 -41.7941
LeftForeArm  108.26 -80.7481 -60.2317
LeftHand  -1.03101 2.66567 42.67
RightShoulder  1.49637 3.14627 15.8053
RightArm  51.2797 -28.0519 27.0127
RightForeArm  119.2 81.4691 81.8789
RightHand  -4.53703 8.6388 -36.5959
LeftUpLeg  3.33223 7.67182 1.2665
LeftLeg  9.88594 13.613 3.26584
LeftFoot  -9.23726 0.19769 -7.75428
LeftToes  7.09373e-011 9.9627e-011 8.96859e-012
3
root  10.3083 40.1235 3.14761 7.77979 -83.7041 -11.4256
RightUpLeg  -5.11998 -5.39588 -4.85156
RightLeg  0.264045 -15.2243 -0.850824
RightFoot  11.6532 -1.40092 7.2733
RightToes  1.16414e-010 0 -3.6325e-017
Spine  -0.210038 -1.94727 -2.06857
Spine1  18.8204 -2.87631 1.13781
HEad  49.9824 -8.72146 -0.949157
LeftShoulder1  1.18816 -3.98242 -8.35143
LeftArm  47.4089 30.2707 -42.4959
LeftForeArm  106.846 -80.5694 -58.0371
LeftHand  -1.00645 2.74844 42.9572
RightShoulder  1.42861 2.84616 15.8031
RightArm  49.9047 -28.8 25.4004
RightForeArm  127.361 81.4764 92.0094
RightHand  -4.01795 8.77652 -32.3635
LeftUpLeg  3.78942 7.75127 2.30378
LeftLeg  10.2281 11.6146 3.4505
LeftFoot  -9.50394 0.190681 -8.33254
LeftToes  7.09373e-011 9.9627e-011 8.96859e-012
4
root  10.063 40.1324 2.81415 7.50953 -82.4962 -11.1667
RightUpLeg  -4.96917 -5.11084 -4.18554
RightLeg  1.16768 -16.6485 -1.23927
RightFoot  10.6897 -1.22244 6.65323
RightToes  1.16414e-010 0 -3.6325e-017
Spine  -0.304685 -2.33271 -2.87855
Spine1  19.5257 -4.04198 3.28321
HEad  50.6571 -9.30057 -0.861469
LeftShoulder1  1.1872 -4.04331 -8.24268
LeftArm  47.5168 30.8558 -42.9987
LeftForeArm  104.983 -80.3479 -55.8125
LeftHand  -0.969984 2.85157 43.101
RightShoulder  1.35294 2.52851 15.7305
RightArm  48.1625 -29.5214 23.9891
RightForeArm  132.192 81.26 99.4899
RightHand  -3.29025 9.07519 -26.2731
LeftUpLeg  3.76508 7.75868 3.12758
LeftLeg  10.571 10.2212 3.52953
LeftFoot  -9.58134 0.194 -8.88313
LeftToes  7.09373e-011 9.9627e-011 8.96859e-012
5
root  9.80913 40.1625 2.53407 7.90149 -81.3596 -11.6954
RightUpLeg  -4.352 -4.97744 -3.55211
RightLeg  1.34788 -17.9104 -1.3439
RightFoot  10.1409 -1.10861 6.2081
RightToes  1.16414e-010 0 -3.6325e-017
Spine  -0.234041 -2.7167 -2.9474
Spine1  19.9116 -4.99003 4.82127
HEad  51.3115 -9.85339 -0.827549
LeftShoulder1  1.1816 -4.03867 -8.1623
LeftArm  47.892 31.0491 -43.3827
LeftForeArm  103.11 -80.1166 -53.7924
LeftHand  -0.934257 2.95189 43.2419
RightShoulder  1.29758 2.29738 15.6657
RightArm  46.1944 -30.0388 23.0834
RightForeArm  132.953 80.9851 103.656
RightHand  -2.61266 9.40954 -20.6318
LeftUpLeg  4.03775 7.6146 3.9496
LeftLeg  10.5783 9.12535 3.58848
LeftFoot  -9.56116 0.198689 -9.09432
LeftToes  7.09373e-011 9.9627e-011 8.96859e-012
6
root  9.55922 40.1918 2.30099 9.10509 -80.5493 -13.1326
RightUpLeg  -3.51364 -4.89561 -2.86877
RightLeg  1.1083 -18.829 -1.24467
RightFoot  9.79946 -1.04291 5.94578
RightToes  1.16414e-010 0 -3.6325e-017
Spine  -0.0975697 -2.99256 -2.23909
Spine1  20.1877 -5.61814 5.79299
HEad  51.7218 -10.4704 -0.872694
LeftShoulder1  1.17373 -4.04842 -8.02319
LeftArm  47.9875 30.9998 -43.9161
LeftForeArm  101.804 -79.9038 -51.9747
LeftHand  -0.920443 2.99681 43.4043
RightShoulder  1.23987 2.10147 15.3941
RightArm  43.9449 -30.261 22.9779
RightForeArm  133.493 80.6835 107.364
RightHand  -2.16661 9.7569 -16.8503
LeftUpLeg  4.46299 7.37099 4.83291
LeftLeg  10.5605 8.48976 3.62399
LeftFoot  -9.52813 0.203045 -9.21523
LeftToes  7.09373e-011 9.9627e-011 8.96859e-012
7
root  9.30829 40.2082 2.07695 10.8687 -79.909 -15.0139
RightUpLeg  -2.65001 -4.81965 -2.10388
RightLeg  0.469115 -19.5672 -0.957177
RightFoot  9.45814 -1.00367 5.81888
RightToes  1.16414e-010 0 -3.6325e-017
Spine  -0.124815 -3.20969 -1.19411
Spine1  20.4589 -6.13283 6.64863
HEad  51.8054 -11.0629 -1.01409
LeftShoulder1  1.17992 -4.14574 -7.89248
LeftArm  47.7973 30.9618 -44.4611
LeftForeArm  100.912 -79.7061 -50.333
LeftHand  -0.919598 3.00349 43.4823
RightShoulder  1.17191 1.90997 14.8775
RightArm  41.8115 -30.164 23.6767
RightForeArm  136.347 80.4151 111.277
RightHand  -1.91642 10.0772 -14.6709
LeftUpLeg  4.63594 6.98516 5.80997
LeftLeg  10.8449 8.15956 3.57418
LeftFoot  -9.52589 0.209197 -9.59187
LeftToes  7.09373e-011 9.9627e-011 8.96859e-012
8
root  9.07074 40.2073 1.84164 12.3711 -79.3933 -16.387
RightUpLeg  -2.0443 -4.79274 -1.42725
RightLeg  -0.245571 -20.1072 -0.583506
RightFoot  8.94588 -1.03073 6.10175
RightToes  1.16414e-010 0 -3.6325e-017
Spine  -0.134808 -3.34803 -0.24
Spine1  20.2834 -6.52674 7.51651
HEad  51.818 -11.571 -1.18357
LeftShoulder1  1.20361 -4.29209 -7.9087
LeftArm  47.8731 30.9878 -44.646
LeftForeArm  99.6733 -79.4908 -48.8265
LeftHand  -0.898372 3.05606 43.4563
RightShoulder  1.13625 1.8175 14.5549
RightArm  40.598 -29.8288 24.5311
RightForeArm  140.416 80.317 113.795
RightHand  -1.81987 10.2664 -13.7983
LeftUpLeg  4.2873 6.40023 6.71843
LeftLeg  11.6288 8.18298 3.46573
LeftFoot  -9.58857 0.212676 -10.142
LeftToes  7.09373e-011 9.9627e-011 8.96859e-012
9
root  8.86774 40.1828 1.60282 13.3718 -79.1053 -17.0889
RightUpLeg  -1.99571 -4.8624 -0.954327
RightLeg  -0.292709 -20.3038 -0.368408
RightFoot  8.12772 -1.12932 6.9032
RightToes  1.16414e-010 0 -3.6325e-017
Spine  0.11542 -3.33409 0.654735
Spine1  19.5318 -6.64754 8.24207
HEad  51.8799 -12.1789 -1.26382
LeftShoulder1  1.2299 -4.38714 -8.07404
LeftArm  48.3849 30.8772 -44.538
LeftForeArm  97.8929 -79.2355 -47.3256
LeftHand  -0.852045 3.17335 43.4442
RightShoulder  1.12836 1.78215 14.5468
RightArm  40.5699 -29.265 25.1243
RightForeArm  143.078 80.4004 114.134
RightHand  -1.9436 10.3589 -14.6129
LeftUpLeg  3.33473 5.60099 7.46058
LeftLeg  13.2324 8.63609 3.43038
LeftFoot  -9.68146 0.214402 -10.7869
LeftToes  7.09373e-011 9.9627e-011 8.96859e-012
10
root  8.73117 40.1436 1.36792 14.2097 -79.2844 -17.6386
RightUpLeg  -2.53855 -4.94142 -0.612024
RightLeg  0.590881 -20.0307 -0.464714
RightFoot  7.14606 -1.2034 7.68483
RightToes  1.16414e-010 0 -3.6325e-017
Spine  0.652144 -3.08119 1.61306
Spine1  18.7324 -6.42133 8.75333
HEad  51.5985 -13.0078 -1.21332
LeftShoulder1  1.24341 -4.38712 -8.26586
LeftArm  48.8201 30.4424 -44.5999
LeftForeArm  96.3766 -78.9701 -45.8049
LeftHand  -0.823567 3.25058 43.5335
RightShoulder  1.09373 1.66471 14.3452
RightArm  41.1176 -28.3752 25.9463
RightForeArm  142.822 80.5575 112.674
RightHand  -2.29908 10.4552 -17.0727
LeftUpLeg  1.91411 5.19567 8.14864
LeftLeg  15.7505 8.98135 3.42695
LeftFoot  -9.48933 0.249325 -11.8661
LeftToes  7.09373e-011 9.9627e-011 8.96859e-012
